<svg width="600" height="400" xmlns="http://www.w3.org/2000/svg" style="background-color:white"><text x="300" y="30" font-family="Arial" font-size="16" fill="black" text-anchor="middle">Cancellations: Pollution vs Weather (2023-2025 Combined)</text><line x1="60" y1="50" x2="60" y2="350" stroke="black" stroke-width="2" /><line x1="60" y1="350" x2="650" y2="350" stroke="black" stroke-width="2" /><line x1="55" y1="350.0" x2="60" y2="350.0" stroke="black" stroke-width="2" /><text x="50" y="354.0" font-family="Arial" font-size="10" fill="black" text-anchor="end">0</text><line x1="55" y1="290.9090909090909" x2="60" y2="290.9090909090909" stroke="black" stroke-width="2" /><text x="50" y="294.9090909090909" font-family="Arial" font-size="10" fill="black" text-anchor="end">26</text><line x1="60" y1="290.9090909090909" x2="650" y2="290.9090909090909" stroke="#eee" stroke-width="2" /><line x1="55" y1="231.8181818181818" x2="60" y2="231.8181818181818" stroke="black" stroke-width="2" /><text x="50" y="235.8181818181818" font-family="Arial" font-size="10" fill="black" text-anchor="end">52</text><line x1="60" y1="231.8181818181818" x2="650" y2="231.8181818181818" stroke="#eee" stroke-width="2" /><line x1="55" y1="172.72727272727272" x2="60" y2="172.72727272727272" stroke="black" stroke-width="2" /><text x="50" y="176.72727272727272" font-family="Arial" font-size="10" fill="black" text-anchor="end">78</text><line x1="60" y1="172.72727272727272" x2="650" y2="172.72727272727272" stroke="#eee" stroke-width="2" /><line x1="55" y1="113.63636363636363" x2="60" y2="113.63636363636363" stroke="black" stroke-width="2" /><text x="50" y="117.63636363636363" font-family="Arial" font-size="10" fill="black" text-anchor="end">104</text><line x1="60" y1="113.63636363636363" x2="650" y2="113.63636363636363" stroke="#eee" stroke-width="2" /><line x1="55" y1="54.545454545454504" x2="60" y2="54.545454545454504" stroke="black" stroke-width="2" /><text x="50" y="58.545454545454504" font-family="Arial" font-size="10" fill="black" text-anchor="end">130</text><line x1="60" y1="54.545454545454504" x2="650" y2="54.545454545454504" stroke="#eee" stroke-width="2" /><rect x="68.75" y="99.99999999999997" width="15" height="250.00000000000003" fill="#555555" fill-opacity="1.0" /><rect x="83.75" y="250.0" width="15" height="100.00000000000001" fill="#3498DB" fill-opacity="1.0" /><text x="83.75" y="370" font-family="Arial" font-size="10" fill="black" text-anchor="middle">J</text><rect x="116.25" y="252.27272727272725" width="15" height="97.72727272727273" fill="#555555" fill-opacity="1.0" /><rect x="131.25" y="188.63636363636363" width="15" height="161.36363636363637" fill="#3498DB" fill-opacity="1.0" /><text x="131.25" y="370" font-family="Arial" font-size="10" fill="black" text-anchor="middle">F</text><rect x="163.75" y="256.8181818181818" width="15" height="93.18181818181819" fill="#555555" fill-opacity="1.0" /><rect x="178.75" y="247.72727272727272" width="15" height="102.27272727272728" fill="#3498DB" fill-opacity="1.0" /><text x="178.75" y="370" font-family="Arial" font-size="10" fill="black" text-anchor="middle">M</text><rect x="211.25" y="229.54545454545453" width="15" height="120.45454545454547" fill="#555555" fill-opacity="1.0" /><rect x="226.25" y="236.36363636363637" width="15" height="113.63636363636364" fill="#3498DB" fill-opacity="1.0" /><text x="226.25" y="370" font-family="Arial" font-size="10" fill="black" text-anchor="middle">A</text><rect x="258.75" y="272.72727272727275" width="15" height="77.27272727272728" fill="#555555" fill-opacity="1.0" /><rect x="273.75" y="261.3636363636364" width="15" height="88.63636363636364" fill="#3498DB" fill-opacity="1.0" /><text x="273.75" y="370" font-family="Arial" font-size="10" fill="black" text-anchor="middle">M</text><rect x="306.25" y="288.6363636363636" width="15" height="61.36363636363637" fill="#555555" fill-opacity="1.0" /><rect x="321.25" y="197.72727272727272" width="15" height="152.27272727272728" fill="#3498DB" fill-opacity="1.0" /><text x="321.25" y="370" font-family="Arial" font-size="10" fill="black" text-anchor="middle">J</text><rect x="353.75" y="336.3636363636364" width="15" height="13.636363636363637" fill="#555555" fill-opacity="1.0" /><rect x="368.75" y="206.8181818181818" width="15" height="143.1818181818182" fill="#3498DB" fill-opacity="1.0" /><text x="368.75" y="370" font-family="Arial" font-size="10" fill="black" text-anchor="middle">J</text><rect x="401.25" y="345.45454545454544" width="15" height="4.545454545454546" fill="#555555" fill-opacity="1.0" /><rect x="416.25" y="318.1818181818182" width="15" height="31.81818181818182" fill="#3498DB" fill-opacity="1.0" /><text x="416.25" y="370" font-family="Arial" font-size="10" fill="black" text-anchor="middle">A</text><rect x="448.75" y="329.54545454545456" width="15" height="20.454545454545457" fill="#555555" fill-opacity="1.0" /><rect x="463.75" y="209.09090909090907" width="15" height="140.90909090909093" fill="#3498DB" fill-opacity="1.0" /><text x="463.75" y="370" font-family="Arial" font-size="10" fill="black" text-anchor="middle">S</text><rect x="496.25" y="270.45454545454544" width="15" height="79.54545454545455" fill="#555555" fill-opacity="1.0" /><rect x="511.25" y="220.45454545454544" width="15" height="129.54545454545456" fill="#3498DB" fill-opacity="1.0" /><text x="511.25" y="370" font-family="Arial" font-size="10" fill="black" text-anchor="middle">O</text><rect x="543.75" y="238.63636363636363" width="15" height="111.36363636363637" fill="#555555" fill-opacity="1.0" /><rect x="558.75" y="286.3636363636364" width="15" height="63.63636363636364" fill="#3498DB" fill-opacity="1.0" /><text x="558.75" y="370" font-family="Arial" font-size="10" fill="black" text-anchor="middle">N</text><rect x="591.25" y="163.63636363636363" width="15" height="186.36363636363637" fill="#555555" fill-opacity="1.0" /><rect x="606.25" y="254.54545454545453" width="15" height="95.45454545454547" fill="#3498DB" fill-opacity="1.0" /><text x="606.25" y="370" font-family="Arial" font-size="10" fill="black" text-anchor="middle">D</text><rect x="450" y="60" width="15" height="15" fill="#555555" fill-opacity="1.0" /><text x="520" y="72" font-family="Arial" font-size="12" fill="black" text-anchor="middle">Pollution</text><rect x="450" y="85" width="15" height="15" fill="#3498DB" fill-opacity="1.0" /><text x="520" y="97" font-family="Arial" font-size="12" fill="black" text-anchor="middle">Weather</text></svg>