<svg width="800" height="400" xmlns="http://www.w3.org/2000/svg" style="background-color:white"><text x="400" y="30" font-family="Arial" font-size="16" fill="black" text-anchor="middle">Seasonality Profile (% of Annual Check-ins)</text><line x1="60" y1="50" x2="60" y2="350" stroke="black" stroke-width="2" /><line x1="60" y1="350" x2="650" y2="350" stroke="black" stroke-width="2" /><line x1="60" y1="350.0" x2="650" y2="350.0" stroke="#eee" stroke-width="2" /><text x="50" y="354.0" font-family="Arial" font-size="10" fill="black" text-anchor="end">0%</text><line x1="60" y1="275.0" x2="650" y2="275.0" stroke="#eee" stroke-width="2" /><text x="50" y="279.0" font-family="Arial" font-size="10" fill="black" text-anchor="end">5%</text><line x1="60" y1="200.0" x2="650" y2="200.0" stroke="#eee" stroke-width="2" /><text x="50" y="204.0" font-family="Arial" font-size="10" fill="black" text-anchor="end">10%</text><line x1="60" y1="125.0" x2="650" y2="125.0" stroke="#eee" stroke-width="2" /><text x="50" y="129.0" font-family="Arial" font-size="10" fill="black" text-anchor="end">15%</text><line x1="60" y1="50.0" x2="650" y2="50.0" stroke="#eee" stroke-width="2" /><text x="50" y="54.0" font-family="Arial" font-size="10" fill="black" text-anchor="end">20%</text><text x="60.0" y="370" font-family="Arial" font-size="12" fill="black" text-anchor="middle">J</text><text x="113.63636363636363" y="370" font-family="Arial" font-size="12" fill="black" text-anchor="middle">F</text><text x="167.27272727272725" y="370" font-family="Arial" font-size="12" fill="black" text-anchor="middle">M</text><text x="220.9090909090909" y="370" font-family="Arial" font-size="12" fill="black" text-anchor="middle">A</text><text x="274.5454545454545" y="370" font-family="Arial" font-size="12" fill="black" text-anchor="middle">M</text><text x="328.1818181818182" y="370" font-family="Arial" font-size="12" fill="black" text-anchor="middle">J</text><text x="381.8181818181818" y="370" font-family="Arial" font-size="12" fill="black" text-anchor="middle">J</text><text x="435.45454545454544" y="370" font-family="Arial" font-size="12" fill="black" text-anchor="middle">A</text><text x="489.09090909090907" y="370" font-family="Arial" font-size="12" fill="black" text-anchor="middle">S</text><text x="542.7272727272727" y="370" font-family="Arial" font-size="12" fill="black" text-anchor="middle">O</text><text x="596.3636363636364" y="370" font-family="Arial" font-size="12" fill="black" text-anchor="middle">N</text><text x="650.0" y="370" font-family="Arial" font-size="12" fill="black" text-anchor="middle">D</text><circle cx="60.0" cy="252.9565892475901" r="3" fill="#333333" stroke="none" /><circle cx="113.63636363636363" cy="251.43624247913567" r="3" fill="#333333" stroke="none" /><circle cx="167.27272727272725" cy="243.18755256518082" r="3" fill="#333333" stroke="none" /><circle cx="220.9090909090909" cy="254.3798926052921" r="3" fill="#333333" stroke="none" /><circle cx="274.5454545454545" cy="243.47868279743807" r="3" fill="#333333" stroke="none" /><circle cx="328.1818181818182" cy="218.82965646632596" r="3" fill="#333333" stroke="none" /><circle cx="381.8181818181818" cy="206.63453451510642" r="3" fill="#333333" stroke="none" /><circle cx="435.45454545454544" cy="185.70550559617" r="3" fill="#333333" stroke="none" /><circle cx="489.09090909090907" cy="191.49576243773046" r="3" fill="#333333" stroke="none" /><circle cx="542.7272727272727" cy="199.5503655301805" r="3" fill="#333333" stroke="none" /><circle cx="596.3636363636364" cy="210.61331435595523" r="3" fill="#333333" stroke="none" /><circle cx="650.0" cy="241.73190140389468" r="3" fill="#333333" stroke="none" /><polyline points="60.0,252.9565892475901 113.63636363636363,251.43624247913567 167.27272727272725,243.18755256518082 220.9090909090909,254.3798926052921 274.5454545454545,243.47868279743807 328.1818181818182,218.82965646632596 381.8181818181818,206.63453451510642 435.45454545454544,185.70550559617 489.09090909090907,191.49576243773046 542.7272727272727,199.5503655301805 596.3636363636364,210.61331435595523 650.0,241.73190140389468" fill="none" stroke="#333333" stroke-width="2" /><line x1="670" y1="100" x2="700" y2="100" stroke="#333333" stroke-width="3" /><text x="710" y="104" font-family="Arial" font-size="10" fill="black" text-anchor="start">Super Core</text><circle cx="60.0" cy="275.1657548639542" r="3" fill="#2ECC71" stroke="none" /><circle cx="113.63636363636363" cy="271.9865222274555" r="3" fill="#2ECC71" stroke="none" /><circle cx="167.27272727272725" cy="262.937937031267" r="3" fill="#2ECC71" stroke="none" /><circle cx="220.9090909090909" cy="256.6066446867867" r="3" fill="#2ECC71" stroke="none" /><circle cx="274.5454545454545" cy="244.86793956740695" r="3" fill="#2ECC71" stroke="none" /><circle cx="328.1818181818182" cy="203.26618600775333" r="3" fill="#2ECC71" stroke="none" /><circle cx="381.8181818181818" cy="185.68530125720082" r="3" fill="#2ECC71" stroke="none" /><circle cx="435.45454545454544" cy="163.70240208688094" r="3" fill="#2ECC71" stroke="none" /><circle cx="489.09090909090907" cy="177.6964602731785" r="3" fill="#2ECC71" stroke="none" /><circle cx="542.7272727272727" cy="189.70689467772908" r="3" fill="#2ECC71" stroke="none" /><circle cx="596.3636363636364" cy="211.03764356363902" r="3" fill="#2ECC71" stroke="none" /><circle cx="650.0" cy="257.34031375674795" r="3" fill="#2ECC71" stroke="none" /><polyline points="60.0,275.1657548639542 113.63636363636363,271.9865222274555 167.27272727272725,262.937937031267 220.9090909090909,256.6066446867867 274.5454545454545,244.86793956740695 328.1818181818182,203.26618600775333 381.8181818181818,185.68530125720082 435.45454545454544,163.70240208688094 489.09090909090907,177.6964602731785 542.7272727272727,189.70689467772908 596.3636363636364,211.03764356363902 650.0,257.34031375674795" fill="none" stroke="#2ECC71" stroke-width="2" /><line x1="670" y1="130" x2="700" y2="130" stroke="#2ECC71" stroke-width="3" /><text x="710" y="134" font-family="Arial" font-size="10" fill="black" text-anchor="start">Resilient</text><circle cx="60.0" cy="293.5902185994813" r="3" fill="#F1C40F" stroke="none" /><circle cx="113.63636363636363" cy="285.6243052982586" r="3" fill="#F1C40F" stroke="none" /><circle cx="167.27272727272725" cy="247.18414227491664" r="3" fill="#F1C40F" stroke="none" /><circle cx="220.9090909090909" cy="246.7210077806595" r="3" fill="#F1C40F" stroke="none" /><circle cx="274.5454545454545" cy="235.88366061504263" r="3" fill="#F1C40F" stroke="none" /><circle cx="328.1818181818182" cy="179.8443868099296" r="3" fill="#F1C40F" stroke="none" /><circle cx="381.8181818181818" cy="207.1693219711004" r="3" fill="#F1C40F" stroke="none" /><circle cx="435.45454545454544" cy="193.46054094108928" r="3" fill="#F1C40F" stroke="none" /><circle cx="489.09090909090907" cy="164.28306780288995" r="3" fill="#F1C40F" stroke="none" /><circle cx="542.7272727272727" cy="179.5665061133753" r="3" fill="#F1C40F" stroke="none" /><circle cx="596.3636363636364" cy="199.3886624675806" r="3" fill="#F1C40F" stroke="none" /><circle cx="650.0" cy="267.2841793256762" r="3" fill="#F1C40F" stroke="none" /><polyline points="60.0,293.5902185994813 113.63636363636363,285.6243052982586 167.27272727272725,247.18414227491664 220.9090909090909,246.7210077806595 274.5454545454545,235.88366061504263 328.1818181818182,179.8443868099296 381.8181818181818,207.1693219711004 435.45454545454544,193.46054094108928 489.09090909090907,164.28306780288995 542.7272727272727,179.5665061133753 596.3636363636364,199.3886624675806 650.0,267.2841793256762" fill="none" stroke="#F1C40F" stroke-width="2" /><line x1="670" y1="160" x2="700" y2="160" stroke="#F1C40F" stroke-width="3" /><text x="710" y="164" font-family="Arial" font-size="10" fill="black" text-anchor="start">Fair Weather</text><circle cx="60.0" cy="246.73913043478262" r="3" fill="#3498DB" stroke="none" /><circle cx="113.63636363636363" cy="248.55072463768116" r="3" fill="#3498DB" stroke="none" /><circle cx="167.27272727272725" cy="290.5797101449275" r="3" fill="#3498DB" stroke="none" /><circle cx="220.9090909090909" cy="294.2028985507246" r="3" fill="#3498DB" stroke="none" /><circle cx="274.5454545454545" cy="282.78985507246375" r="3" fill="#3498DB" stroke="none" /><circle cx="328.1818181818182" cy="223.3695652173913" r="3" fill="#3498DB" stroke="none" /><circle cx="381.8181818181818" cy="127.3550724637681" r="3" fill="#3498DB" stroke="none" /><circle cx="435.45454545454544" cy="114.13043478260869" r="3" fill="#3498DB" stroke="none" /><circle cx="489.09090909090907" cy="202.71739130434784" r="3" fill="#3498DB" stroke="none" /><circle cx="542.7272727272727" cy="213.2246376811594" r="3" fill="#3498DB" stroke="none" /><circle cx="596.3636363636364" cy="217.3913043478261" r="3" fill="#3498DB" stroke="none" /><circle cx="650.0" cy="238.94927536231882" r="3" fill="#3498DB" stroke="none" /><polyline points="60.0,246.73913043478262 113.63636363636363,248.55072463768116 167.27272727272725,290.5797101449275 220.9090909090909,294.2028985507246 274.5454545454545,282.78985507246375 328.1818181818182,223.3695652173913 381.8181818181818,127.3550724637681 435.45454545454544,114.13043478260869 489.09090909090907,202.71739130434784 542.7272727272727,213.2246376811594 596.3636363636364,217.3913043478261 650.0,238.94927536231882" fill="none" stroke="#3498DB" stroke-width="2" /><line x1="670" y1="190" x2="700" y2="190" stroke="#3498DB" stroke-width="3" /><text x="710" y="194" font-family="Arial" font-size="10" fill="black" text-anchor="start">Nomad</text></svg>