<svg width="600" height="400" xmlns="http://www.w3.org/2000/svg" style="background-color:white"><text x="300" y="30" font-family="Arial" font-size="16" fill="black" text-anchor="middle">Tenure by Group: Resilient vs Non-Resilient (Days)</text><line x1="60" y1="50" x2="60" y2="350" stroke="black" stroke-width="2" /><line x1="60" y1="350" x2="580" y2="350" stroke="black" stroke-width="2" /><line x1="55" y1="350.0" x2="60" y2="350.0" stroke="black" stroke-width="2" /><text x="45" y="354.0" font-family="Arial" font-size="10" fill="black" text-anchor="end">0</text><line x1="55" y1="254.13094038162245" x2="60" y2="254.13094038162245" stroke="black" stroke-width="2" /><text x="45" y="258.13094038162245" font-family="Arial" font-size="10" fill="black" text-anchor="end">50</text><line x1="55" y1="158.2618807632449" x2="60" y2="158.2618807632449" stroke="black" stroke-width="2" /><text x="45" y="162.2618807632449" font-family="Arial" font-size="10" fill="black" text-anchor="end">100</text><line x1="55" y1="62.392821144867355" x2="60" y2="62.392821144867355" stroke="black" stroke-width="2" /><text x="45" y="66.39282114486736" font-family="Arial" font-size="10" fill="black" text-anchor="end">150</text><rect x="110" y="312.5572967887541" width="40" height="37.4427032112459" fill="#FF6B6B" fill-opacity="1.0" /><text x="130.0" y="307.5572967887541" font-family="Arial" font-size="10" fill="black" text-anchor="middle">19</text><rect x="150" y="89.92783124838405" width="40" height="260.07216875161595" fill="#4ECDC4" fill-opacity="1.0" /><text x="170.0" y="84.92783124838405" font-family="Arial" font-size="10" fill="black" text-anchor="middle">135</text><text x="150" y="370" font-family="Arial" font-size="12" fill="black" text-anchor="middle">2023</text><rect x="270" y="313.4849325320631" width="40" height="36.51506746793689" fill="#FF6B6B" fill-opacity="1.0" /><text x="290.0" y="308.4849325320631" font-family="Arial" font-size="10" fill="black" text-anchor="middle">19</text><rect x="310" y="77.27272727272725" width="40" height="272.72727272727275" fill="#4ECDC4" fill-opacity="1.0" /><text x="330.0" y="72.27272727272725" font-family="Arial" font-size="10" fill="black" text-anchor="middle">142</text><text x="310" y="370" font-family="Arial" font-size="12" fill="black" text-anchor="middle">2024</text><rect x="430" y="348.456053714938" width="40" height="1.5439462850620207" fill="#FF6B6B" fill-opacity="1.0" /><text x="450.0" y="343.456053714938" font-family="Arial" font-size="10" fill="black" text-anchor="middle">0</text><rect x="470" y="288.416727028036" width="40" height="61.58327297196397" fill="#4ECDC4" fill-opacity="1.0" /><text x="490.0" y="283.416727028036" font-family="Arial" font-size="10" fill="black" text-anchor="middle">32</text><text x="470" y="370" font-family="Arial" font-size="12" fill="black" text-anchor="middle">2025</text><rect x="450" y="60" width="15" height="15" fill="#4ECDC4" fill-opacity="1.0" /><text x="520" y="72" font-family="Arial" font-size="12" fill="black" text-anchor="middle">Resilient</text><rect x="450" y="85" width="15" height="15" fill="#FF6B6B" fill-opacity="1.0" /><text x="520" y="97" font-family="Arial" font-size="12" fill="black" text-anchor="middle">Non-Resilient</text></svg>